<svg width="16" height="16" viewBox="0 0 16 16" fill="none" xmlns="http://www.w3.org/2000/svg">
<path d="M1.21799 2.09202C1 2.51984 1 3.0799 1 4.2V8.3C1 9.42011 1 9.98016 1.21799 10.408C1.40973 10.7843 1.71569 11.0903 2.09202 11.282C2.39717 11.4375 2.7696 11.4821 3.36454 11.4949V15L8.87496 11.5L11.8 11.5C12.9201 11.5 13.4802 11.5 13.908 11.282C14.2843 11.0903 14.5903 10.7843 14.782 10.408C15 9.98016 15 9.42011 15 8.3V4.2C15 3.0799 15 2.51984 14.782 2.09202C14.5903 1.71569 14.2843 1.40973 13.908 1.21799C13.4802 1 12.9201 1 11.8 1H4.2C3.0799 1 2.51984 1 2.09202 1.21799C1.71569 1.40973 1.40973 1.71569 1.21799 2.09202Z" stroke="black" stroke-width="2" stroke-linejoin="round"/>
</svg>
